<?xml version="1.0" encoding="utf-8"?>
<!-- Generator: Adobe Illustrator 27.0.1, SVG Export Plug-In . SVG Version: 6.00 Build 0)  -->
<svg version="1.1" id="Layer_1" xmlns="http://www.w3.org/2000/svg" xmlns:xlink="http://www.w3.org/1999/xlink" x="0px" y="0px"
	 viewBox="0 0 216 43.2" style="enable-background:new 0 0 216 43.2;" xml:space="preserve">
<style type="text/css">
	.st0{fill:#410843;}
	.st1{fill:none;stroke:#410843;stroke-miterlimit:10;}
</style>
<g>
	<g>
		<path class="st0" d="M6.9,10.2c-0.3,0-0.6,0.1-0.8,0.2c-0.3,0.1-0.4,0.4-0.4,0.8c0,0.3,0.1,0.5,0.2,0.7s0.3,0.3,0.6,0.4
			c0.3,0.1,0.6,0.2,0.9,0.3c0.3,0.1,0.6,0.1,0.9,0.2c0.9,0.2,1.7,0.5,2.4,0.9c0.7,0.4,1.3,1,1.8,1.7c0.5,0.7,0.7,1.5,0.7,2.5
			c0,1.3-0.3,2.3-0.9,3s-1.3,1.3-2.3,1.6s-2,0.5-3.1,0.5c-0.3,0-0.7,0-1.2-0.1c-0.5-0.1-0.9-0.2-1.1-0.3h0c-0.1,0-0.2-0.1-0.5-0.2
			c-0.2-0.1-0.4-0.1-0.5-0.1c-0.3,0-0.5,0.1-0.7,0.3s-0.5,0.3-0.8,0.3c-0.4,0-0.7-0.1-0.9-0.4c-0.2-0.3-0.4-0.6-0.5-0.9
			c-0.1-0.4-0.2-0.7-0.3-1c-0.1-0.3-0.1-0.5-0.2-0.8C0,19.6,0,19.3,0,19.1c0-0.5,0.1-0.9,0.4-1.2c0.3-0.3,0.6-0.4,1.1-0.4
			c0.5,0,0.9,0.1,1.2,0.3s0.6,0.5,0.8,0.8c0.2,0.3,0.5,0.6,0.8,0.9c0.3,0.3,0.6,0.6,0.9,0.8c0.4,0.2,0.8,0.3,1.4,0.3
			c0.4,0,0.7-0.1,0.9-0.3s0.3-0.5,0.3-0.9c0-0.5-0.1-0.9-0.4-1c-0.3-0.1-0.6-0.3-1.1-0.3c-0.8-0.2-1.6-0.3-2.3-0.6s-1.4-0.5-1.9-0.9
			c-0.6-0.4-1-0.9-1.3-1.5c-0.3-0.6-0.5-1.4-0.5-2.4c0-1.1,0.3-2.1,0.9-2.8c0.6-0.7,1.4-1.3,2.4-1.6c1-0.3,1.9-0.5,2.9-0.5
			c0.4,0,0.8,0,1.1,0S8.4,8,8.7,8.1c0,0,0.2,0,0.3,0.1s0.4,0.2,0.8,0.3c0.3,0,0.6-0.1,0.8-0.3s0.5-0.3,0.8-0.3
			c0.4,0,0.7,0.2,0.9,0.5c0.2,0.3,0.3,0.7,0.4,1.1c0.1,0.4,0.1,0.7,0.2,1c0,0.2,0.1,0.4,0.1,0.6c0,0.2,0.1,0.4,0.1,0.6
			c0,0.4-0.1,0.7-0.3,1.1c-0.2,0.3-0.5,0.5-0.9,0.5S11,13,10.7,12.7c-0.3-0.3-0.7-0.6-1-1c-0.3-0.4-0.7-0.7-1.2-1
			C8.1,10.4,7.6,10.2,6.9,10.2z"/>
		<path class="st0" d="M20.7,22.9c-1.6,0-2.8-0.4-3.8-1.1c-0.9-0.7-1.4-1.9-1.4-3.6v-6.1c0-0.4-0.1-0.7-0.3-0.9
			c-0.2-0.2-0.4-0.4-0.6-0.5c-0.2-0.1-0.4-0.3-0.6-0.5c-0.2-0.2-0.3-0.5-0.3-0.8c0-0.4,0.1-0.7,0.4-0.9s0.6-0.3,0.9-0.3h0.6
			c0.3,0,0.5-0.1,0.8-0.4c0.3-0.3,0.5-0.6,0.8-1C17.7,6.4,18,6,18.3,5.6c0.3-0.4,0.6-0.7,1-1c0.3-0.3,0.7-0.4,1.1-0.4
			c0.5,0,0.8,0.1,1.1,0.4c0.3,0.3,0.4,0.6,0.4,1.1v2.6H25c0.4,0,0.7,0.1,0.9,0.3s0.4,0.4,0.4,0.8c0,0.5-0.2,0.9-0.5,1.2
			s-0.7,0.4-1.2,0.5c-0.5,0.1-0.9,0.1-1.3,0.1h-1.4v5.5c0,0.5,0.1,0.9,0.3,1.3c0.2,0.4,0.5,0.6,1.1,0.6c0.4,0,0.7-0.1,0.9-0.3
			c0.3-0.2,0.5-0.4,0.7-0.6s0.5-0.3,0.7-0.3c0.2,0,0.4,0.1,0.5,0.3c0.1,0.2,0.1,0.4,0.1,0.6c0,0.9-0.3,1.7-0.8,2.4
			c-0.6,0.7-1.3,1.2-2.1,1.6C22.4,22.7,21.6,22.9,20.7,22.9z"/>
		<path class="st0" d="M27.4,19.3c0-0.9,0.2-1.6,0.6-2.1c0.4-0.6,0.9-1,1.6-1.4c0.6-0.3,1.3-0.6,2.1-0.7c0.8-0.1,1.5-0.2,2.2-0.2
			c0.2,0,0.4,0,0.6,0s0.4,0,0.6,0.1v-3.6c0-0.2,0-0.5-0.1-0.8c-0.1-0.3-0.3-0.5-0.6-0.5c-0.3,0-0.5,0.1-0.5,0.4
			c-0.1,0.2-0.1,0.5-0.1,0.7c0,0.1,0,0.2,0,0.3s0,0.2,0,0.3c0,1-0.3,1.6-1,2c-0.7,0.4-1.4,0.6-2.3,0.6c-0.7,0-1.3-0.2-1.8-0.5
			c-0.5-0.3-0.8-0.9-0.8-1.7c0-0.3,0.1-0.6,0.2-0.9c0.1-0.3,0.3-0.6,0.5-0.8c0.6-0.7,1.3-1.2,2.1-1.6c0.9-0.4,1.8-0.6,2.7-0.7
			c1-0.1,1.8-0.2,2.7-0.2c0.9,0,1.8,0.1,2.6,0.4s1.4,0.7,1.9,1.3s0.7,1.5,0.7,2.5v6.4c0,0.2,0,0.3,0.1,0.4c0.1,0.1,0.2,0.2,0.4,0.2
			c0.1,0,0.3,0,0.4-0.1c0.1-0.1,0.2-0.1,0.4-0.1c0.3,0,0.5,0.1,0.6,0.3c0.1,0.2,0.2,0.4,0.2,0.7c0,0.6-0.2,1.2-0.6,1.7
			s-0.9,0.8-1.5,1.1s-1.2,0.4-1.8,0.4c-0.7,0-1.4-0.2-2.1-0.5c-0.7-0.3-1.2-0.8-1.5-1.4c-0.5,0.7-1.1,1.1-1.9,1.4
			c-0.8,0.3-1.6,0.5-2.4,0.5c-0.7,0-1.4-0.1-2-0.4c-0.6-0.3-1.1-0.7-1.5-1.2C27.6,20.8,27.4,20.1,27.4,19.3z M33.7,18.1
			c0,0.4,0.1,0.7,0.3,1.1s0.5,0.5,0.9,0.5c0.1,0,0.2,0,0.2,0v-2.9c-0.2-0.1-0.3-0.1-0.5-0.1c-0.4,0-0.6,0.2-0.7,0.5
			C33.8,17.5,33.7,17.8,33.7,18.1z"/>
		<path class="st0" d="M50,22.9c-1.6,0-2.8-0.4-3.8-1.1c-0.9-0.7-1.4-1.9-1.4-3.6v-6.1c0-0.4-0.1-0.7-0.3-0.9
			c-0.2-0.2-0.4-0.4-0.6-0.5c-0.2-0.1-0.4-0.3-0.6-0.5c-0.2-0.2-0.3-0.5-0.3-0.8c0-0.4,0.1-0.7,0.4-0.9c0.3-0.2,0.6-0.3,0.9-0.3h0.6
			c0.3,0,0.5-0.1,0.8-0.4c0.3-0.3,0.5-0.6,0.8-1C47,6.4,47.3,6,47.6,5.6c0.3-0.4,0.6-0.7,1-1c0.3-0.3,0.7-0.4,1.1-0.4
			c0.5,0,0.8,0.1,1.1,0.4c0.3,0.3,0.4,0.6,0.4,1.1v2.6h3.2c0.4,0,0.7,0.1,0.9,0.3c0.3,0.2,0.4,0.4,0.4,0.8c0,0.5-0.2,0.9-0.5,1.2
			s-0.7,0.4-1.2,0.5c-0.5,0.1-0.9,0.1-1.3,0.1h-1.4v5.5c0,0.5,0.1,0.9,0.3,1.3c0.2,0.4,0.5,0.6,1.1,0.6c0.4,0,0.7-0.1,0.9-0.3
			s0.5-0.4,0.7-0.6c0.2-0.2,0.5-0.3,0.7-0.3c0.2,0,0.4,0.1,0.5,0.3c0.1,0.2,0.1,0.4,0.1,0.6c0,0.9-0.3,1.7-0.8,2.4
			c-0.6,0.7-1.3,1.2-2.1,1.6C51.7,22.7,50.9,22.9,50,22.9z"/>
		<path class="st0" d="M70.6,13.3c0,0.8-0.2,1.5-0.7,1.9s-1.1,0.6-1.9,0.6h-5.6c0.2,0.8,0.6,1.5,1.1,2s1.3,0.8,2.4,0.8
			c0.4,0,0.8-0.1,1.2-0.3s0.8-0.4,1.1-0.6c0.4-0.2,0.7-0.4,0.9-0.6c0.3-0.2,0.5-0.3,0.6-0.3c0.3,0,0.5,0.1,0.6,0.3
			c0.1,0.2,0.2,0.4,0.2,0.6c0,0.8-0.2,1.6-0.6,2.2c-0.4,0.6-0.9,1.2-1.6,1.6c-0.6,0.4-1.3,0.7-2.1,0.9s-1.5,0.3-2.3,0.3
			c-1.5,0-2.7-0.3-3.9-0.9s-2-1.4-2.6-2.5s-0.9-2.4-0.9-3.8c0-1.6,0.3-3,0.9-4.1c0.6-1.2,1.5-2.1,2.6-2.7c1.1-0.6,2.5-1,4.1-1
			c1.1,0,2.1,0.2,3.1,0.6c1,0.4,1.8,1,2.4,1.9C70.3,11.1,70.6,12.1,70.6,13.3z M62.1,13.7c0,0.1,0,0.2,0,0.3h1.4
			c0.4,0,0.6-0.1,0.7-0.2s0.2-0.4,0.2-0.7c0-0.2,0-0.5-0.1-0.9c-0.1-0.4-0.2-0.7-0.3-1c-0.2-0.3-0.4-0.4-0.7-0.4
			c-0.3,0-0.5,0.1-0.7,0.3s-0.3,0.5-0.4,0.8s-0.1,0.7-0.2,1S62.1,13.5,62.1,13.7z"/>
		<path class="st0" d="M79.9,7.8c1.5,0,2.9,0.3,4,0.9s2.1,1.5,2.7,2.7c0.6,1.1,1,2.5,1,4c0,1.5-0.4,2.8-1.1,3.9
			c-0.7,1.1-1.7,2-2.9,2.6s-2.5,0.9-4,0.9c-1.5,0-2.9-0.3-4-1c-1.2-0.6-2.1-1.5-2.7-2.7c-0.6-1.2-1-2.5-1-4c0-1.5,0.4-2.8,1.1-3.9
			s1.7-2,2.9-2.6S78.5,7.8,79.9,7.8z M80.7,19.8c0.2,0,0.4-0.1,0.5-0.4c0.1-0.2,0.2-0.5,0.2-0.8c0-0.3,0-0.5,0-0.7
			c0-0.5,0-1.1-0.1-1.6c-0.1-0.5-0.2-1-0.3-1.6c0-0.2-0.1-0.5-0.3-1c-0.1-0.4-0.3-0.9-0.5-1.4c-0.2-0.5-0.4-0.9-0.6-1.2
			c-0.2-0.3-0.5-0.5-0.7-0.5c-0.2,0-0.4,0.1-0.5,0.4c-0.1,0.2-0.2,0.5-0.2,0.8c0,0.3,0,0.5,0,0.7c0,0.3,0,0.7,0.1,1.2
			c0.1,0.6,0.2,1.2,0.3,1.8c0.1,0.7,0.3,1.3,0.5,2c0.2,0.6,0.4,1.1,0.7,1.6C80.1,19.6,80.4,19.8,80.7,19.8z"/>
		<path class="st0" d="M96.8,11.9v6.4c0,0.7,0.1,1.1,0.3,1.2c0.2,0.2,0.6,0.3,1.2,0.3c0.5,0.1,0.9,0.2,1.2,0.3
			c0.3,0.1,0.4,0.5,0.4,1.1c0,0.4-0.1,0.7-0.4,0.9c-0.3,0.2-0.6,0.3-1,0.3H90c-0.4,0-0.7-0.1-1-0.3s-0.4-0.5-0.4-0.9
			c0-0.5,0.1-0.8,0.3-1c0.2-0.2,0.4-0.3,0.7-0.4c0.3-0.1,0.5-0.3,0.7-0.5c0.2-0.2,0.3-0.6,0.3-1.2v-5.4c0-0.3-0.1-0.6-0.4-0.8
			c-0.2-0.2-0.5-0.3-0.8-0.5c-0.3-0.1-0.6-0.3-0.8-0.5c-0.2-0.2-0.4-0.5-0.4-1c0-0.4,0.1-0.7,0.4-0.9S89.1,9,89.5,9h1.1V8.9
			c0-0.1-0.1-0.2-0.4-0.5c-0.3-0.2-0.5-0.5-0.8-0.9c-0.3-0.4-0.4-0.8-0.4-1.2c0-0.8,0.2-1.5,0.5-2.1s0.8-1,1.4-1.4
			c0.6-0.3,1.3-0.6,2-0.8s1.4-0.2,2.1-0.2c0.6,0,1.3,0.1,1.9,0.2c0.7,0.1,1.3,0.4,1.9,0.7s1,0.7,1.4,1.3c0.4,0.5,0.5,1.2,0.5,1.9
			c0,0.8-0.2,1.4-0.6,1.8c-0.4,0.4-1,0.7-1.8,0.7c-0.8,0-1.5-0.2-1.9-0.7c-0.5-0.5-0.7-1.1-0.7-1.9c0-0.3,0-0.6,0-0.8
			c0-0.3-0.1-0.5-0.3-0.7S95,4,94.6,4c-0.4,0-0.6,0.1-0.8,0.4c-0.1,0.3-0.2,0.5-0.2,0.9c0,0.4,0.1,0.7,0.4,1
			c0.3,0.3,0.6,0.6,0.9,0.8c0.3,0.3,0.7,0.5,0.9,0.8c0.3,0.3,0.4,0.6,0.4,0.9V9h2.5c0.3,0,0.6,0.1,0.9,0.3c0.3,0.2,0.4,0.4,0.4,0.8
			c0,0.6-0.2,1-0.6,1.2s-0.8,0.4-1.3,0.5C97.7,11.9,97.2,11.9,96.8,11.9z"/>
		<path class="st0" d="M100.7,15.9c0-1.4,0.3-2.7,0.8-3.9s1.3-2.2,2.4-3c1-0.8,2.3-1.1,3.8-1.1c0.9,0,1.7,0.2,2.5,0.6V7.2
			c0-0.4-0.1-0.7-0.2-0.9c-0.1-0.2-0.3-0.4-0.5-0.5c-0.2-0.1-0.3-0.3-0.5-0.4c-0.1-0.2-0.2-0.4-0.2-0.7c0-0.4,0.1-0.7,0.3-0.9
			c0.2-0.2,0.5-0.4,0.8-0.5l3-1.2c0.4-0.1,0.7-0.3,1.1-0.4c0.4-0.1,0.8-0.2,1.1-0.2c0.4,0,0.7,0.1,0.9,0.4c0.2,0.3,0.3,0.6,0.3,0.9
			v15.5c0,0.5,0,0.8,0.1,0.9c0.1,0.2,0.3,0.4,0.6,0.8c0.2,0.2,0.3,0.4,0.4,0.5c0.1,0.1,0.1,0.3,0.1,0.6c0,0.4-0.1,0.7-0.4,0.9
			s-0.6,0.3-1,0.3h-3.1c-0.5,0-1-0.2-1.5-0.5s-0.8-0.7-1-1.2c-0.6,0.6-1.2,1.1-1.9,1.5s-1.5,0.6-2.4,0.6c-0.9,0-1.8-0.2-2.5-0.6
			c-0.7-0.4-1.3-1-1.8-1.7c-0.5-0.7-0.8-1.5-1-2.3C100.8,17.5,100.7,16.7,100.7,15.9z M107.2,15.2c0,0.3,0,0.7,0.1,1.2
			c0.1,0.5,0.1,0.9,0.3,1.4s0.4,0.8,0.6,1.1c0.3,0.3,0.7,0.5,1.1,0.5c0.4,0,0.7-0.1,1-0.4v-7.4c-0.2-0.2-0.3-0.3-0.5-0.4
			c-0.2-0.1-0.4-0.1-0.6-0.1c-0.4,0-0.8,0.2-1,0.5c-0.3,0.3-0.4,0.7-0.6,1.2s-0.2,0.9-0.3,1.4S107.2,14.8,107.2,15.2z"/>
		<path class="st0" d="M132.8,13.3c0,0.8-0.2,1.5-0.7,1.9c-0.5,0.4-1.1,0.6-1.9,0.6h-5.6c0.2,0.8,0.6,1.5,1.1,2
			c0.5,0.5,1.3,0.8,2.4,0.8c0.4,0,0.8-0.1,1.2-0.3c0.4-0.2,0.8-0.4,1.1-0.6c0.4-0.2,0.7-0.4,0.9-0.6c0.3-0.2,0.5-0.3,0.6-0.3
			c0.3,0,0.5,0.1,0.6,0.3c0.1,0.2,0.2,0.4,0.2,0.6c0,0.8-0.2,1.6-0.6,2.2s-0.9,1.2-1.6,1.6s-1.3,0.7-2.1,0.9s-1.5,0.3-2.3,0.3
			c-1.5,0-2.7-0.3-3.9-0.9s-2-1.4-2.6-2.5c-0.6-1.1-0.9-2.4-0.9-3.8c0-1.6,0.3-3,0.9-4.1c0.6-1.2,1.5-2.1,2.6-2.7s2.5-1,4.1-1
			c1.1,0,2.1,0.2,3.1,0.6c1,0.4,1.8,1,2.4,1.9C132.5,11.1,132.8,12.1,132.8,13.3z M124.3,13.7c0,0.1,0,0.2,0,0.3h1.4
			c0.4,0,0.6-0.1,0.7-0.2c0.1-0.2,0.2-0.4,0.2-0.7c0-0.2,0-0.5-0.1-0.9s-0.2-0.7-0.3-1c-0.2-0.3-0.4-0.4-0.7-0.4
			c-0.3,0-0.5,0.1-0.7,0.3c-0.2,0.2-0.3,0.5-0.4,0.8s-0.1,0.7-0.2,1S124.3,13.5,124.3,13.7z"/>
		<path class="st0" d="M143.3,22.8h-2.2c-0.6,0-1.1-0.2-1.5-0.5c-0.4-0.4-0.7-0.8-0.9-1.3l-3.9-8.9c-0.1-0.3-0.3-0.6-0.4-0.8
			c-0.1-0.2-0.3-0.4-0.6-0.6c-0.2-0.2-0.4-0.3-0.5-0.5s-0.2-0.4-0.2-0.7c0-0.4,0.1-0.7,0.4-0.9c0.3-0.2,0.6-0.3,1-0.3h7.5
			c0.4,0,0.7,0.1,0.9,0.3c0.2,0.2,0.3,0.5,0.3,0.9c0,0.3-0.1,0.6-0.3,0.8c-0.2,0.2-0.4,0.3-0.6,0.5c-0.2,0.1-0.4,0.3-0.6,0.4
			s-0.3,0.4-0.3,0.7c0,0.2,0,0.4,0.1,0.6c0.1,0.2,0.1,0.4,0.2,0.6l2.1,5.5l2-5.2c0.1-0.2,0.1-0.4,0.2-0.6s0.1-0.4,0.1-0.6
			c0-0.4-0.1-0.6-0.3-0.8c-0.2-0.2-0.4-0.3-0.6-0.5c-0.2-0.1-0.4-0.3-0.6-0.5c-0.2-0.2-0.3-0.5-0.3-0.8c0-0.4,0.1-0.7,0.4-0.9
			c0.3-0.2,0.6-0.3,1-0.3h3.9c0.4,0,0.7,0.1,1,0.3c0.3,0.2,0.4,0.5,0.4,0.9c0,0.3-0.1,0.6-0.2,0.7s-0.3,0.3-0.5,0.5
			c-0.4,0.3-0.6,0.6-0.7,0.9c-0.1,0.3-0.3,0.6-0.5,1c-0.6,1.4-1.2,2.8-1.8,4.2c-0.6,1.4-1.2,2.8-1.9,4.2c-0.3,0.5-0.6,0.9-0.9,1.2
			C144.4,22.7,143.9,22.8,143.3,22.8z"/>
		<path class="st1" d="M168,16.5c0-0.4,0-0.9,0-1.3c0-0.4-0.1-0.9-0.1-1.3l-0.4-6.1c0-0.5-0.1-0.8-0.3-0.9c-0.2-0.1-0.5-0.3-0.9-0.4
			c-0.5-0.2-0.8-0.4-1.1-0.5c-0.2-0.2-0.4-0.6-0.4-1.1c0-0.5,0.1-0.9,0.4-1.1c0.3-0.3,0.7-0.4,1.2-0.4h5.3c0.5,0,0.9,0.1,1.2,0.4
			c0.3,0.3,0.4,0.6,0.4,1.1c0,0.4-0.1,0.8-0.3,1c-0.2,0.2-0.4,0.4-0.7,0.5c-0.3,0.1-0.5,0.2-0.8,0.3c-0.3,0.1-0.5,0.2-0.7,0.4
			c-0.2,0.2-0.3,0.5-0.3,0.8V8l0.6,5.9c0,0.5,0.1,0.9,0.1,1.4s0,1,0,1.4c0,1.3-0.3,2.3-0.9,3.2c-0.6,0.8-1.4,1.5-2.4,1.9
			c-1,0.5-2,0.8-3.2,1c-1.1,0.2-2.2,0.3-3.2,0.3c-1.1,0-2.1-0.1-3.1-0.3c-1-0.2-1.9-0.6-2.7-1.1c-0.8-0.5-1.5-1.2-1.9-2
			c-0.5-0.8-0.7-1.9-0.7-3.1c0-0.5,0-1,0.1-1.5s0.1-1,0.1-1.5l0.4-6V7.6c0-0.3-0.1-0.5-0.3-0.6c-0.2-0.1-0.4-0.2-0.7-0.3
			c-0.3-0.1-0.6-0.2-0.8-0.3c-0.3-0.1-0.5-0.3-0.7-0.5s-0.3-0.6-0.3-1c0-0.5,0.1-0.9,0.4-1.1s0.7-0.4,1.2-0.4h9.1
			c0.5,0,0.9,0.1,1.2,0.4c0.3,0.3,0.4,0.6,0.4,1.1c0,0.5-0.1,0.8-0.3,1c-0.2,0.2-0.4,0.4-0.7,0.5c-0.3,0.1-0.6,0.2-0.9,0.4
			c-0.3,0.1-0.5,0.3-0.6,0.5c-0.1,0.2-0.1,0.4-0.2,0.7l-0.3,4.4c0,0.6-0.1,1.2-0.1,1.9c0,0.6-0.1,1.2-0.1,1.9c0,1.3,0.3,2.2,1,2.8
			c0.7,0.6,1.7,0.8,2.9,0.8c0.7,0,1.3-0.1,1.9-0.3c0.6-0.2,1.1-0.5,1.5-1C167.8,17.9,168,17.3,168,16.5z"/>
		<path class="st1" d="M192.3,4.8c0,0.3-0.1,0.7-0.3,1.1s-0.4,0.7-0.6,1l-9.2,12.6h3.4c0.8,0,1.4-0.1,1.8-0.4c0.4-0.3,0.8-0.6,1-1
			c0.2-0.4,0.5-0.8,0.6-1.2c0.2-0.4,0.4-0.8,0.6-1c0.2-0.3,0.6-0.4,1-0.4c0.4,0,0.8,0.1,1.2,0.4c0.3,0.3,0.5,0.6,0.5,1.1
			c0,0.2,0,0.4-0.1,0.6l-1,3.5c-0.2,0.6-0.4,1.1-0.7,1.6c-0.3,0.4-0.8,0.6-1.6,0.6c-0.3,0-0.6,0-0.9-0.1c-0.3-0.1-0.6-0.1-0.9-0.2
			c-0.5-0.1-1-0.2-1.5-0.2h-10.1c-0.5,0-0.9-0.1-1.1-0.4c-0.3-0.3-0.4-0.6-0.4-1.1c0-0.4,0.1-0.7,0.3-1.1c0.2-0.4,0.4-0.7,0.6-1
			l9.2-12.6H181c-0.8,0-1.3,0.1-1.7,0.3c-0.4,0.2-0.7,0.5-0.9,0.8c-0.2,0.3-0.4,0.6-0.5,1c-0.1,0.3-0.3,0.6-0.5,0.8
			c-0.2,0.2-0.6,0.3-1,0.3c-0.3,0-0.7-0.1-1.1-0.4c-0.4-0.2-0.6-0.6-0.6-0.9c0,0,0-0.1,0-0.2l0.7-3.1c0.1-0.6,0.4-1.2,0.7-1.6
			s0.8-0.6,1.6-0.6c0.6,0,1.1,0.1,1.6,0.2c0.5,0.2,1.1,0.2,1.6,0.2h9.9c0.5,0,0.9,0.1,1.1,0.4C192.1,3.9,192.3,4.3,192.3,4.8z"/>
	</g>
	<g>
		<g>
			<path class="st0" d="M96.9,41.6v-8.3H98v1h0.1c0.1-0.1,0.2-0.3,0.4-0.5c0.2-0.2,0.4-0.3,0.6-0.4c0.3-0.1,0.6-0.2,1-0.2
				c0.5,0,0.9,0.1,1.2,0.3c0.3,0.2,0.6,0.4,0.9,0.7c0.2,0.3,0.4,0.6,0.5,1c0.1,0.4,0.2,0.8,0.2,1.1c0,0.4-0.1,0.8-0.2,1.1
				c-0.1,0.4-0.3,0.7-0.5,1c-0.2,0.3-0.5,0.5-0.9,0.7c-0.3,0.2-0.7,0.3-1.2,0.3c-0.4,0-0.7-0.1-1-0.2c-0.3-0.1-0.5-0.3-0.6-0.4
				c-0.2-0.2-0.3-0.3-0.4-0.5H98v3.2H96.9z M98,36.4c0,0.4,0.1,0.7,0.2,1.1c0.1,0.3,0.3,0.6,0.6,0.8c0.3,0.2,0.6,0.3,1,0.3
				c0.4,0,0.8-0.1,1-0.3c0.3-0.2,0.5-0.5,0.6-0.8c0.1-0.3,0.2-0.7,0.2-1.1c0-0.4-0.1-0.7-0.2-1.1c-0.1-0.3-0.3-0.6-0.6-0.8
				c-0.3-0.2-0.6-0.3-1-0.3c-0.4,0-0.7,0.1-1,0.3c-0.3,0.2-0.5,0.5-0.6,0.8C98.1,35.6,98,36,98,36.4z"/>
			<path class="st0" d="M108.2,39.5c-0.6,0-1.2-0.2-1.6-0.5c-0.4-0.3-0.8-0.7-1-1.2c-0.2-0.5-0.3-1-0.3-1.5c0-0.5,0.1-1,0.3-1.5
				c0.2-0.5,0.6-0.9,1-1.2c0.4-0.3,1-0.5,1.6-0.5c0.6,0,1.2,0.2,1.6,0.5c0.4,0.3,0.8,0.7,1,1.2c0.2,0.5,0.3,1,0.3,1.5
				c0,0.5-0.1,1-0.3,1.5c-0.2,0.5-0.6,0.9-1,1.2C109.4,39.3,108.9,39.5,108.2,39.5z M108.2,38.5c0.4,0,0.8-0.1,1-0.3
				c0.3-0.2,0.5-0.5,0.6-0.8c0.1-0.3,0.2-0.7,0.2-1.1c0-0.4-0.1-0.7-0.2-1.1c-0.1-0.3-0.3-0.6-0.6-0.8c-0.3-0.2-0.6-0.3-1-0.3
				c-0.4,0-0.7,0.1-1,0.3c-0.3,0.2-0.5,0.5-0.6,0.8c-0.1,0.3-0.2,0.7-0.2,1.1c0,0.4,0.1,0.7,0.2,1.1s0.4,0.6,0.6,0.8
				C107.5,38.4,107.8,38.5,108.2,38.5z"/>
			<path class="st0" d="M115.2,39.4l-1.9-6h1.1l1.4,4.6l1.5-4.6h1l1.5,4.6l1.4-4.6h1.1l-2,6h-1.2l-1.4-4.5l-1.4,4.5H115.2z"/>
			<path class="st0" d="M127.3,39.5c-0.5,0-0.9-0.1-1.3-0.3c-0.4-0.2-0.7-0.4-0.9-0.7c-0.2-0.3-0.4-0.6-0.5-1
				c-0.1-0.4-0.2-0.7-0.2-1.1c0-0.4,0.1-0.8,0.2-1.1c0.1-0.4,0.3-0.7,0.5-1c0.2-0.3,0.5-0.5,0.9-0.7c0.4-0.2,0.8-0.3,1.3-0.3
				c0.5,0,1,0.1,1.4,0.4s0.7,0.6,0.9,1c0.2,0.5,0.3,1,0.3,1.7v0.3h-4.4c0,0.3,0.1,0.7,0.2,0.9c0.1,0.3,0.3,0.5,0.6,0.7
				c0.3,0.2,0.6,0.3,0.9,0.3c0.3,0,0.6-0.1,0.8-0.2c0.2-0.1,0.3-0.2,0.5-0.4c0.1-0.1,0.2-0.3,0.3-0.5h1c-0.1,0.3-0.2,0.5-0.3,0.7
				c-0.1,0.2-0.2,0.4-0.4,0.6c-0.2,0.2-0.4,0.4-0.7,0.5C128.1,39.4,127.7,39.5,127.3,39.5z M125.5,35.8h3.3c0-0.4-0.1-0.7-0.3-1
				c-0.2-0.2-0.3-0.4-0.6-0.6c-0.2-0.1-0.5-0.2-0.8-0.2c-0.5,0-0.9,0.2-1.2,0.5C125.8,34.9,125.6,35.3,125.5,35.8z"/>
			<path class="st0" d="M132.6,39.4v-6h1.1v0.8h0c0.1-0.2,0.3-0.4,0.6-0.6c0.3-0.2,0.6-0.3,1.1-0.3c0.1,0,0.3,0,0.5,0v1
				c-0.2,0-0.4,0-0.5,0c-0.5,0-0.9,0.2-1.2,0.5c-0.3,0.3-0.4,0.8-0.4,1.5v3.2H132.6z"/>
			<path class="st0" d="M140.9,39.5c-0.5,0-0.9-0.1-1.3-0.3c-0.4-0.2-0.7-0.4-0.9-0.7c-0.2-0.3-0.4-0.6-0.5-1
				c-0.1-0.4-0.2-0.7-0.2-1.1c0-0.4,0.1-0.8,0.2-1.1c0.1-0.4,0.3-0.7,0.5-1c0.2-0.3,0.5-0.5,0.9-0.7c0.4-0.2,0.8-0.3,1.3-0.3
				c0.5,0,1,0.1,1.4,0.4s0.7,0.6,0.9,1c0.2,0.5,0.3,1,0.3,1.7v0.3h-4.4c0,0.3,0.1,0.7,0.2,0.9c0.1,0.3,0.3,0.5,0.6,0.7
				c0.3,0.2,0.6,0.3,0.9,0.3c0.3,0,0.6-0.1,0.8-0.2c0.2-0.1,0.3-0.2,0.5-0.4c0.1-0.1,0.2-0.3,0.3-0.5h1c-0.1,0.3-0.2,0.5-0.3,0.7
				c-0.1,0.2-0.2,0.4-0.4,0.6c-0.2,0.2-0.4,0.4-0.7,0.5C141.7,39.4,141.3,39.5,140.9,39.5z M139.2,35.8h3.3c0-0.4-0.1-0.7-0.3-1
				c-0.2-0.2-0.3-0.4-0.6-0.6c-0.2-0.1-0.5-0.2-0.8-0.2c-0.5,0-0.9,0.2-1.2,0.5C139.4,34.9,139.2,35.3,139.2,35.8z"/>
			<path class="st0" d="M148.8,39.5c-0.5,0-0.9-0.1-1.2-0.3c-0.3-0.2-0.6-0.4-0.9-0.7c-0.2-0.3-0.4-0.6-0.5-1
				c-0.1-0.4-0.2-0.8-0.2-1.1c0-0.4,0.1-0.8,0.2-1.1c0.1-0.4,0.3-0.7,0.5-1c0.2-0.3,0.5-0.5,0.9-0.7c0.3-0.2,0.7-0.3,1.2-0.3
				c0.4,0,0.7,0.1,1,0.2s0.5,0.3,0.6,0.4c0.2,0.2,0.3,0.3,0.4,0.5h0.1v-3.6h1.1v8.7h-1.1v-1h-0.1c-0.1,0.1-0.2,0.3-0.4,0.5
				c-0.2,0.2-0.4,0.3-0.6,0.4S149.2,39.5,148.8,39.5z M149,38.6c0.4,0,0.7-0.1,1-0.3c0.3-0.2,0.5-0.5,0.6-0.8
				c0.1-0.3,0.2-0.7,0.2-1.1c0-0.4-0.1-0.7-0.2-1.1c-0.1-0.3-0.3-0.6-0.6-0.8c-0.3-0.2-0.6-0.3-1-0.3c-0.4,0-0.7,0.1-1,0.3
				c-0.3,0.2-0.5,0.5-0.6,0.8c-0.1,0.3-0.2,0.7-0.2,1.1c0,0.4,0.1,0.7,0.2,1.1c0.1,0.3,0.3,0.6,0.6,0.8
				C148.2,38.5,148.6,38.6,149,38.6z"/>
			<path class="st0" d="M161.7,39.5c-0.4,0-0.7-0.1-1-0.2c-0.3-0.1-0.5-0.3-0.6-0.4c-0.2-0.2-0.3-0.3-0.4-0.5h-0.1v1h-1.1v-8.7h1.1
				v3.6h0.1c0.1-0.1,0.2-0.3,0.4-0.5c0.2-0.2,0.4-0.3,0.6-0.4s0.6-0.2,1-0.2c0.5,0,0.9,0.1,1.2,0.3c0.3,0.2,0.6,0.4,0.9,0.7
				c0.2,0.3,0.4,0.6,0.5,1c0.1,0.4,0.2,0.8,0.2,1.1c0,0.4-0.1,0.8-0.2,1.1c-0.1,0.4-0.3,0.7-0.5,1c-0.2,0.3-0.5,0.5-0.9,0.7
				C162.6,39.4,162.2,39.5,161.7,39.5z M161.5,38.6c0.4,0,0.8-0.1,1-0.3c0.3-0.2,0.5-0.5,0.6-0.8c0.1-0.3,0.2-0.7,0.2-1.1
				c0-0.4-0.1-0.7-0.2-1.1c-0.1-0.3-0.3-0.6-0.6-0.8c-0.3-0.2-0.6-0.3-1-0.3c-0.4,0-0.7,0.1-1,0.3c-0.3,0.2-0.5,0.5-0.6,0.8
				c-0.1,0.3-0.2,0.7-0.2,1.1c0,0.4,0.1,0.7,0.2,1.1c0.1,0.3,0.3,0.6,0.6,0.8C160.8,38.5,161.1,38.6,161.5,38.6z"/>
			<path class="st0" d="M167,41.6c-0.2,0-0.4,0-0.6,0v-0.9c0.3,0,0.4,0,0.6,0c0.4,0,0.8-0.1,1.1-0.3c0.3-0.2,0.5-0.5,0.7-0.9
				l-2.3-6.1h1.1l1.7,4.7l1.8-4.7h1.1l-2.3,6.1c-0.3,0.8-0.7,1.3-1.1,1.7C168.3,41.4,167.7,41.6,167,41.6z"/>
		</g>
		<g>
			<path class="st0" d="M199.7,38.3c-0.5-1.6,0.1-1.9,0.5-1.9c0.2,0,0.4,0.1,0.8,0.5c0.6,0.6,2,1.2,2.7,1.2c0.4,0,0.7-0.2,0.7-0.4
				c0-0.2-0.2-0.3-1.5-0.8c-1.4-0.5-3.2-1.3-3.1-3.1c0-1.3,1.1-2.5,3.1-2.5c0.8,0,1.3,0.2,1.7,0.2c0.4,0,0.8-0.2,1.1-0.2
				c0.5,0,0.8,0.3,1.2,1c0.3,0.7,0.5,1.4,0.4,1.7c0,0.2-0.2,0.4-0.4,0.4c-0.3,0-0.5-0.1-0.9-0.3c-0.8-0.4-1.6-0.8-2.3-0.8
				c-0.4,0-0.6,0.1-0.7,0.4c0,0.2,0.2,0.4,1.8,0.9c1.4,0.5,3,1.1,3,2.9c0,1.6-1.4,2.7-3.6,2.7c-0.9,0-1.4-0.2-1.8-0.2
				c-0.4,0-0.8,0.2-1.1,0.2C200.2,40,199.9,39,199.7,38.3z"/>
			<path class="st0" d="M208,38.3c-0.5-1.6,0.1-1.9,0.5-1.9c0.2,0,0.4,0.1,0.8,0.5c0.6,0.6,2,1.2,2.7,1.2c0.4,0,0.7-0.2,0.7-0.4
				c0-0.2-0.2-0.3-1.5-0.8c-1.4-0.5-3.2-1.3-3.1-3.1c0-1.3,1.1-2.5,3.1-2.5c0.8,0,1.3,0.2,1.7,0.2c0.4,0,0.8-0.2,1.1-0.2
				c0.5,0,0.8,0.3,1.2,1c0.3,0.7,0.5,1.4,0.4,1.7c0,0.2-0.2,0.4-0.4,0.4c-0.3,0-0.5-0.1-0.9-0.3c-0.8-0.4-1.6-0.8-2.3-0.8
				c-0.4,0-0.6,0.1-0.7,0.4c0,0.2,0.2,0.4,1.8,0.9c1.4,0.5,3,1.1,3,2.9c0,1.6-1.4,2.7-3.6,2.7c-0.9,0-1.4-0.2-1.8-0.2
				c-0.4,0-0.8,0.2-1.1,0.2C208.6,40,208.2,39,208,38.3z"/>
			<path class="st0" d="M177.6,36.1v-2.5c0-0.3-0.1-0.4-0.4-0.4h-0.3c-0.3,0-0.6-0.3-0.6-0.7v-0.1c0-0.9,0.5-0.8,1.3-1.4
				c1.1-0.8,0.9-2.9,2.5-2.9c0.5,0,0.7,0.2,0.7,0.6v2.2c0,0.3,0.1,0.4,0.4,0.4h1.7c0.9,0,1,0.2,1,0.7c0,0.6-0.2,1.1-1.5,1.1h-1.1
				c-0.3,0-0.4,0.1-0.4,0.4v2.2c0,1.7,0.5,2.3,1.2,2.3c0.4,0,0.6-0.1,1-0.5c0.3-0.3,0.5-0.5,0.7-0.4c0.3,0.1,0.4,0.3,0.3,0.9
				c-0.3,1.1-1.3,2-3,2C178.5,40,177.6,38.8,177.6,36.1z"/>
			<path class="st0" d="M198.7,36.1V34c0-0.7,0-0.9,0.4-1.3c0.2-0.3,0.4-0.4,0.4-0.6c0-0.5-0.8-0.7-2.4-0.7c-1.6,0-2.4,0.2-2.4,0.7
				c0,0.2,0.1,0.4,0.4,0.6c0.4,0.5,0.4,0.7,0.4,1.3v2c0,1.2-0.5,2-1.3,2c-0.6,0-1.2-0.4-1.2-2.2V34c0-0.7,0-0.9,0.4-1.3
				c0.2-0.3,0.4-0.4,0.4-0.6c0-0.5-0.8-0.7-2.4-0.7c-0.4,0-0.7,0-1,0c-0.4-0.3-0.9-0.3-1.4-0.2c-0.5,0.2-0.9,0.5-1.2,1.1
				c0,0.1-0.2,0.1-0.2-0.1v-0.4c0-0.5-0.4-0.6-0.9-0.5c-0.5,0.1-3.1,0.9-3.1,1.7c0,0.2,0.2,0.4,0.5,0.7c0.3,0.3,0.3,0.5,0.3,1.3v2.1
				c0,0.7,0,0.9-0.4,1.3c-0.2,0.3-0.4,0.4-0.4,0.6c0,0.5,0.8,0.7,2.4,0.7c1.6,0,2.4-0.2,2.4-0.7c0-0.2-0.1-0.4-0.4-0.6
				c-0.4-0.5-0.4-0.7-0.4-1.3v-1.7c0-1,0.4-1.6,0.9-1.6c0.6,0,0.8,0.7,1.6,0.7c0.6,0,1-0.4,1.1-1.1c0.1,1-0.3,1.6-1.1,1.6
				c-0.1,0-0.2,0-0.3,0v0.8c0,3,1.2,4.2,3.1,4.2c1,0,1.8-0.3,2.4-0.8c0.1-0.1,0.2,0,0.2,0.1c0,0.5,0.4,0.6,0.9,0.5
				c0.5-0.1,3.1-0.9,3.1-1.7c0-0.2-0.2-0.4-0.5-0.7C198.7,37.1,198.7,36.9,198.7,36.1z"/>
		</g>
	</g>
</g>
</svg>
