<?xml version="1.0" standalone="no"?>
<!DOCTYPE svg PUBLIC "-//W3C//DTD SVG 20010904//EN"
 "http://www.w3.org/TR/2001/REC-SVG-20010904/DTD/svg10.dtd">
<svg version="1.0" xmlns="http://www.w3.org/2000/svg"
 width="2500.000000pt" height="2500.000000pt" viewBox="0 0 2500.000000 2500.000000"
 preserveAspectRatio="xMidYMid meet">
<metadata>
Created by potrace 1.14, written by Peter Selinger 2001-2017
</metadata>
<g transform="translate(0.000000,2500.000000) scale(0.100000,-0.100000)"
fill="#000000" stroke="none">
<path d="M12207 20884 c-1 -1 -65 -5 -142 -9 -77 -3 -162 -8 -190 -10 -161
-13 -288 -25 -313 -30 -9 -1 -51 -6 -92 -10 -41 -4 -84 -9 -94 -11 -11 -2 -40
-6 -65 -9 -25 -3 -55 -7 -66 -9 -11 -2 -40 -7 -65 -11 -25 -3 -58 -9 -75 -11
-61 -10 -292 -54 -365 -69 -41 -9 -82 -18 -91 -20 -42 -9 -158 -37 -189 -46
-19 -5 -62 -16 -95 -23 -234 -54 -729 -220 -1035 -346 -333 -138 -706 -318
-945 -458 -33 -19 -69 -40 -80 -46 -11 -6 -74 -44 -140 -84 -66 -40 -129 -78
-140 -85 -31 -18 -363 -243 -422 -285 -68 -49 -312 -235 -339 -258 -12 -11
-39 -32 -60 -49 -251 -196 -704 -629 -954 -910 -29 -33 -67 -76 -84 -95 -182
-204 -626 -786 -626 -820 0 -6 -4 -10 -10 -10 -5 0 -10 -6 -10 -14 0 -8 -3
-16 -8 -18 -6 -2 -129 -190 -179 -273 -62 -104 -135 -228 -154 -265 -13 -25
-26 -47 -29 -50 -20 -18 -275 -534 -345 -695 -26 -60 -56 -129 -66 -152 -11
-24 -19 -45 -19 -48 0 -4 -8 -25 -19 -48 -71 -159 -268 -745 -306 -913 -2 -11
-22 -89 -44 -174 -33 -129 -82 -358 -105 -485 -3 -16 -8 -41 -11 -55 -5 -31
-26 -158 -30 -185 -2 -11 -6 -40 -9 -65 -4 -25 -9 -56 -11 -70 -2 -14 -7 -50
-10 -80 -4 -30 -8 -66 -10 -80 -5 -36 -17 -154 -29 -295 -7 -72 -16 -220 -22
-330 -5 -108 -5 -695 0 -770 2 -33 7 -109 10 -170 4 -60 8 -128 11 -150 2 -22
7 -65 10 -95 10 -110 16 -167 26 -245 6 -44 13 -98 15 -120 3 -22 12 -80 21
-130 8 -49 17 -103 19 -120 2 -16 6 -39 8 -50 2 -11 11 -60 20 -110 9 -49 21
-108 26 -130 5 -22 26 -112 45 -200 20 -88 38 -162 40 -166 2 -3 6 -19 9 -35
22 -122 206 -694 296 -919 29 -71 60 -151 70 -176 65 -170 341 -741 413 -856
15 -24 27 -45 27 -47 0 -20 258 -435 388 -626 140 -205 435 -591 539 -705 10
-11 49 -56 88 -100 161 -185 311 -340 381 -396 276 -220 659 -252 974 -81 239
129 413 380 455 657 7 44 8 243 1 253 -2 4 -7 25 -10 47 -22 140 -107 300
-231 430 -37 40 -190 204 -240 259 -6 6 -33 38 -60 71 -28 33 -52 62 -56 65
-3 3 -32 39 -64 80 -33 41 -62 77 -65 80 -10 9 -144 192 -217 295 -515 733
-896 1632 -1062 2510 -43 226 -49 265 -66 400 -4 28 -8 61 -10 75 -8 60 -20
176 -30 305 -5 66 -18 404 -18 490 0 91 12 425 18 470 2 17 6 68 10 115 3 47
8 99 10 115 4 33 12 94 20 170 3 28 8 57 10 65 2 8 7 38 10 65 8 65 14 101 25
150 5 22 11 57 14 78 3 21 15 79 27 130 11 51 22 103 25 117 11 58 86 334 119
440 20 63 37 120 38 127 2 7 6 16 10 19 4 4 7 14 7 22 0 18 118 333 174 465
219 511 492 984 815 1412 92 122 78 104 202 255 99 121 124 149 254 289 163
176 412 413 590 561 50 41 92 77 95 80 3 3 34 27 70 55 36 27 67 52 70 55 3 3
21 17 40 30 19 13 37 27 40 30 9 11 173 126 295 207 429 285 949 548 1405 708
58 21 114 41 125 45 24 10 148 49 265 84 73 21 344 92 390 101 194 40 376 74
415 79 28 4 57 9 65 11 8 2 38 6 65 9 28 4 66 8 85 11 19 2 51 7 70 9 19 3 71
8 115 11 44 4 96 9 115 10 251 24 722 24 1035 0 155 -12 192 -15 215 -19 14
-3 50 -8 81 -11 31 -3 65 -7 75 -9 11 -2 42 -7 69 -10 46 -6 202 -32 250 -41
11 -2 47 -9 80 -15 33 -6 96 -19 140 -30 44 -10 94 -21 110 -24 61 -11 403
-108 529 -150 713 -239 1314 -553 1906 -994 85 -64 157 -118 160 -122 3 -3 27
-24 55 -45 53 -43 91 -75 136 -115 15 -14 59 -52 98 -85 92 -79 447 -438 540
-545 41 -47 86 -98 100 -115 23 -26 171 -210 193 -240 5 -5 23 -29 40 -51 180
-228 430 -630 599 -959 89 -176 135 -275 250 -540 49 -114 172 -465 209 -600
50 -176 83 -302 96 -360 8 -38 18 -79 20 -90 5 -21 32 -153 40 -195 12 -61 15
-77 20 -110 2 -19 9 -57 14 -85 5 -27 12 -70 15 -95 3 -25 7 -56 10 -70 2 -14
7 -54 11 -90 3 -36 7 -72 9 -80 2 -8 6 -58 10 -110 4 -52 9 -108 10 -125 6
-57 18 -390 18 -470 0 -81 -12 -416 -18 -490 -3 -38 -9 -105 -21 -225 -5 -54
-7 -65 -18 -145 -3 -22 -8 -60 -11 -85 -7 -51 -10 -73 -30 -192 -16 -94 -68
-338 -95 -448 -18 -69 -33 -132 -35 -140 -2 -8 -18 -62 -35 -120 -18 -58 -33
-112 -35 -120 -7 -29 -128 -376 -145 -415 -5 -11 -39 -92 -75 -179 -61 -146
-153 -349 -174 -386 -5 -8 -35 -64 -66 -125 -104 -198 -231 -410 -377 -628
-45 -67 -85 -126 -90 -132 -5 -5 -51 -68 -104 -138 -305 -410 -766 -889 -1118
-1162 -21 -16 -44 -35 -51 -42 -42 -41 -341 -257 -510 -368 -523 -346 -1183
-661 -1468 -700 -85 -12 -298 -12 -334 -1 -10 3 -36 8 -58 12 -65 9 -215 62
-285 101 -96 52 -165 106 -255 197 -159 162 -278 375 -380 681 -14 42 -80 309
-89 360 -18 97 -25 145 -30 185 -4 25 -8 56 -10 70 -7 42 -15 111 -21 185 -3
39 -8 86 -10 105 -15 102 -18 385 -19 1650 -2 1271 0 1391 15 1452 29 116 75
177 168 223 92 46 121 47 961 50 437 2 809 6 825 8 17 2 66 8 110 11 44 4 87
9 95 11 8 2 33 6 55 9 22 4 51 8 65 11 14 3 34 7 45 9 11 3 43 10 70 16 28 6
57 13 66 15 98 20 298 109 403 179 242 161 367 386 411 739 7 58 8 452 1 487
-3 14 -7 39 -10 55 -21 118 -55 188 -124 255 -82 80 -196 130 -352 156 -19 3
-37 7 -40 9 -3 2 -41 6 -85 10 -44 4 -93 10 -110 12 -16 3 -522 7 -1124 8
-602 2 -1110 6 -1130 9 -156 23 -243 93 -292 236 l-22 65 -2 1330 c-1 732 -5
1353 -9 1382 -38 290 -201 470 -481 529 -11 3 -42 9 -70 15 -64 14 -347 19
-422 7 -32 -4 -74 -11 -93 -13 -19 -3 -62 -13 -95 -21 -33 -9 -64 -17 -70 -18
-5 -1 -37 -12 -70 -25 -305 -115 -539 -328 -756 -687 -62 -102 -192 -356 -246
-479 -66 -151 -83 -190 -113 -260 -397 -948 -651 -1333 -1093 -1658 -155 -114
-345 -231 -662 -409 -210 -118 -211 -119 -298 -178 -238 -162 -369 -358 -416
-625 -28 -158 -32 -450 -7 -590 50 -290 238 -507 508 -586 65 -19 102 -22 338
-24 146 -2 283 -6 305 -9 105 -17 176 -49 227 -103 30 -31 73 -113 84 -158 4
-17 8 -697 10 -1512 2 -1564 5 -1788 29 -2128 10 -137 13 -171 19 -231 4 -33
9 -77 11 -99 2 -22 6 -56 9 -75 2 -19 7 -57 11 -85 10 -76 12 -89 40 -250 15
-82 29 -163 32 -180 3 -16 24 -106 47 -200 112 -445 227 -728 439 -1080 126
-208 372 -484 567 -636 262 -203 553 -355 888 -462 115 -38 300 -88 377 -103
11 -2 31 -6 45 -9 28 -6 189 -33 235 -41 17 -2 41 -6 55 -9 14 -2 52 -7 86
-10 33 -3 71 -7 85 -10 152 -25 425 -21 674 10 17 2 57 6 90 10 33 4 71 8 85
10 14 2 48 7 75 10 80 10 477 75 515 85 19 5 51 12 70 15 19 3 82 17 140 31
58 13 114 26 125 28 44 9 327 86 440 119 510 152 1121 406 1565 651 36 20 72
39 80 43 8 4 65 36 125 71 61 35 126 73 145 84 64 37 364 231 458 298 197 137
583 436 672 519 22 21 69 61 155 136 74 63 509 495 585 580 142 159 330 380
395 466 428 563 670 947 931 1479 69 140 132 269 139 285 7 17 25 56 39 88 40
89 169 418 214 547 79 226 194 610 228 760 4 19 9 40 10 45 8 30 63 274 68
300 2 17 7 41 10 55 16 72 27 128 30 157 3 18 7 40 10 50 2 10 8 41 11 68 9
61 12 81 18 120 3 17 9 55 12 85 4 30 9 62 10 70 2 8 6 44 9 80 4 36 8 75 10
86 3 12 7 57 11 100 3 44 8 95 10 114 3 35 14 196 21 325 6 98 5 650 0 765 -7
144 -25 379 -31 420 -2 14 -7 56 -10 93 -3 37 -7 82 -10 100 -3 18 -7 55 -10
82 -2 28 -7 61 -9 75 -3 14 -8 43 -11 65 -7 54 -44 274 -50 305 -3 14 -7 39
-10 55 -2 17 -13 73 -25 125 -11 52 -25 115 -30 140 -5 25 -25 111 -45 190
-272 1084 -754 2098 -1420 2985 -123 164 -303 391 -350 441 -5 6 -39 44 -75
84 -129 146 -187 208 -370 390 -225 225 -280 276 -513 477 -54 46 -323 260
-382 303 -33 24 -64 48 -70 53 -5 4 -41 30 -80 57 -38 27 -75 53 -81 58 -20
17 -358 238 -459 299 -603 368 -1304 675 -2005 879 -139 41 -436 117 -500 129
-14 3 -34 7 -45 9 -27 6 -267 54 -330 66 -72 14 -243 40 -295 46 -25 2 -52 6
-60 9 -8 2 -44 7 -80 10 -36 4 -78 9 -95 11 -28 3 -75 8 -195 19 -72 7 -209
17 -290 21 -81 5 -739 12 -743 8z"/>
</g>
</svg>
